<svg width="48" height="48" viewBox="0 0 48 48" fill="none" xmlns="http://www.w3.org/2000/svg">
<rect width="48" height="48" rx="8" fill="#FFF1F2"/>
<path d="M32 33L31.5528 33.8944C31.8628 34.0494 32.2309 34.0329 32.5257 33.8507C32.8205 33.6684 33 33.3466 33 33H32ZM16 33H15C15 33.3466 15.1795 33.6684 15.4743 33.8507C15.7691 34.0329 16.1372 34.0494 16.4472 33.8944L16 33ZM24 33L23.5528 33.8944C23.8343 34.0352 24.1657 34.0352 24.4472 33.8944L24 33ZM20 31L20.4472 30.1056C20.1657 29.9648 19.8343 29.9648 19.5528 30.1056L20 31ZM28 31L28.4472 30.1056C28.1657 29.9648 27.8343 29.9648 27.5528 30.1056L28 31ZM27 27C27 27.5523 27.4477 28 28 28C28.5523 28 29 27.5523 29 27H27ZM20 22L19.2929 21.2929C18.9024 21.6834 18.9024 22.3166 19.2929 22.7071L20 22ZM22.2929 25.7071C22.6834 26.0976 23.3166 26.0976 23.7071 25.7071C24.0976 25.3166 24.0976 24.6834 23.7071 24.2929L22.2929 25.7071ZM23.7071 19.7071C24.0976 19.3166 24.0976 18.6834 23.7071 18.2929C23.3166 17.9024 22.6834 17.9024 22.2929 18.2929L23.7071 19.7071ZM18 16H30V14H18V16ZM31 17V33H33V17H31ZM17 33V17H15V33H17ZM24.4472 32.1056L20.4472 30.1056L19.5528 31.8944L23.5528 33.8944L24.4472 32.1056ZM19.5528 30.1056L15.5528 32.1056L16.4472 33.8944L20.4472 31.8944L19.5528 30.1056ZM32.4472 32.1056L28.4472 30.1056L27.5528 31.8944L31.5528 33.8944L32.4472 32.1056ZM27.5528 30.1056L23.5528 32.1056L24.4472 33.8944L28.4472 31.8944L27.5528 30.1056ZM30 16C30.5523 16 31 16.4477 31 17H33C33 15.3431 31.6569 14 30 14V16ZM18 14C16.3431 14 15 15.3431 15 17H17C17 16.4477 17.4477 16 18 16V14ZM29 27V26H27V27H29ZM24 21H20V23H24V21ZM29 26C29 23.2386 26.7614 21 24 21V23C25.6569 23 27 24.3431 27 26H29ZM23.7071 24.2929L20.7071 21.2929L19.2929 22.7071L22.2929 25.7071L23.7071 24.2929ZM20.7071 22.7071L23.7071 19.7071L22.2929 18.2929L19.2929 21.2929L20.7071 22.7071Z" fill="#BE123C"/>
</svg>
