<svg width="48" height="48" viewBox="0 0 48 48" fill="none" xmlns="http://www.w3.org/2000/svg">
<rect width="48" height="48" rx="6" fill="#6366F1"/>
<path d="M25.8434 21.6554C26.2053 22.0725 26.8369 22.1173 27.254 21.7553C27.6712 21.3933 27.7159 20.7618 27.354 20.3446L25.8434 21.6554ZM22.1567 26.3446C21.7947 25.9275 21.1631 25.8827 20.746 26.2447C20.3288 26.6067 20.2841 27.2382 20.6461 27.6554L22.1567 26.3446ZM25 19C25 18.4477 24.5523 18 24 18C23.4477 18 23 18.4477 23 19H25ZM23 29C23 29.5523 23.4477 30 24 30C24.5523 30 25 29.5523 25 29L23 29ZM32 24C32 28.4183 28.4183 32 24 32V34C29.5228 34 34 29.5228 34 24H32ZM24 32C19.5817 32 16 28.4183 16 24H14C14 29.5228 18.4772 34 24 34V32ZM16 24C16 19.5817 19.5817 16 24 16V14C18.4772 14 14 18.4772 14 24H16ZM24 16C28.4183 16 32 19.5817 32 24H34C34 18.4772 29.5228 14 24 14V16ZM24 23C23.3415 23 22.7905 22.8202 22.4334 22.5822C22.0693 22.3394 22 22.1139 22 22H20C20 22.9907 20.6023 23.7651 21.324 24.2463C22.0526 24.732 23.0017 25 24 25V23ZM22 22C22 21.8861 22.0693 21.6606 22.4334 21.4178C22.7905 21.1798 23.3415 21 24 21V19C23.0017 19 22.0526 19.268 21.324 19.7537C20.6023 20.2349 20 21.0093 20 22H22ZM24 21C24.9038 21 25.563 21.3323 25.8434 21.6554L27.354 20.3446C26.5969 19.4721 25.3171 19 24 19V21ZM24 25C24.6585 25 25.2095 25.1798 25.5666 25.4178C25.9308 25.6606 26 25.8861 26 26H28C28 25.0093 27.3977 24.2348 26.676 23.7537C25.9474 23.268 24.9983 23 24 23V25ZM23 19V20H25V19H23ZM23 28L23 29L25 29L25 28L23 28ZM24 27C23.0962 27 22.437 26.6677 22.1567 26.3446L20.6461 27.6554C21.4032 28.5279 22.683 29 24 29L24 27ZM26 26C26 26.1139 25.9308 26.3394 25.5666 26.5822C25.2095 26.8202 24.6586 27 24 27V29C24.9983 29 25.9474 28.732 26.676 28.2463C27.3977 27.7651 28 26.9907 28 26H26ZM23 20L23 28L25 28L25 20L23 20Z" fill="white"/>
</svg>
